<svg xmlns="http://www.w3.org/2000/svg" xmlns:xlink="http://www.w3.org/1999/xlink" width="188.603" height="41.143" viewBox="0 0 188.603 41.143">
  <defs>
    <clipPath id="clip-path">
      <rect id="Rectangle_8043" data-name="Rectangle 8043" width="188.603" height="41.143" fill="none"/>
    </clipPath>
  </defs>
  <g id="Group_18503" data-name="Group 18503" transform="translate(-51 -20.982)">
    <rect id="Rectangle_8042" data-name="Rectangle 8042" width="3.829" height="22.116" transform="translate(73.666 33.624)" fill="#4398d7"/>
    <g id="Group_13799" data-name="Group 13799" transform="translate(51 20.982)">
      <g id="Group_13798" data-name="Group 13798" clip-path="url(#clip-path)">
        <path id="Path_76095" data-name="Path 76095" d="M280.8,171.794a7.812,7.812,0,0,0-8.086,7.528q-.01.3,0,.591a8.116,8.116,0,1,0,8.667-8.12q-.291-.01-.582,0m.035,12.714c-2.821,0-4.237-2.211-4.237-4.586s1.45-4.624,4.237-4.624a4.405,4.405,0,0,1,4.239,4.566c0,.02,0,.039,0,.059,0,2.344-1.426,4.586-4.237,4.586" transform="translate(-242.791 -152.944)" fill="#d64794"/>
        <path id="Path_76096" data-name="Path 76096" d="M61.325,27.139A4.1,4.1,0,0,1,57.34,31.5c-2.458,0-3.765-1.8-3.765-4.177,0,0,.2-7.48.2-8.159A9.947,9.947,0,0,0,43.84,9.236a9.257,9.257,0,0,0-1.342.093c-.082-.165-.147-.319-.226-.494a15.653,15.653,0,0,0-29.36,3.391q-.583-.056-1.17-.054C3.736,12.174-.028,18.072,0,23.846S3.5,35.268,11.742,35.268a11.658,11.658,0,0,0,8.414-3.294L17.3,29.1a8.162,8.162,0,0,1-5.554,2.246c-5.474,0-7.6-3.829-7.627-7.5s2.266-7.687,7.627-7.687a5.652,5.652,0,0,1,.816.039,7.534,7.534,0,0,1,4.167,1.72,11.319,11.319,0,0,1-.236-2.251,11.944,11.944,0,0,1,.236-2.349A11.7,11.7,0,0,1,38.512,10.17q.123.235.236.494a11.455,11.455,0,0,1,1.027,3.44q.044.31.073.619A1.306,1.306,0,0,1,40,14.586a5.948,5.948,0,0,1,3.642-1.371h.2a5.981,5.981,0,0,1,5.9,4.886v9.26c0,4.841,2.728,7.659,6.458,7.659a6.951,6.951,0,0,0,5.283-2.344l.247,2.118h3.44V19.163H61.34Z" transform="translate(-0.001 -0.004)" fill="#4398d7"/>
        <path id="Path_76097" data-name="Path 76097" d="M638.641,115.262v8.64c-.914-1.617-3.48-2.506-5.126-2.506-4.551,0-7.937,2.786-7.937,8.163,0,5.126,3.44,8.163,8.036,8.163a5.654,5.654,0,0,0,5.024-2.5l.255,2.153h3.61V115.262Zm-4.777,18.887a4.383,4.383,0,0,1-4.427-4.339q0-.126,0-.251a4.3,4.3,0,0,1,4.044-4.546q.189-.011.378-.005a4.571,4.571,0,0,1,0,9.142" transform="translate(-556.946 -102.62)" fill="#4398d7"/>
        <path id="Path_76098" data-name="Path 76098" d="M801.668,116.381h4.521v9.059l8.492-9.059h5.93l-9.018,9.038,9.488,12.945h-5.9l-6.782-9.6-2.211,2.246v7.369h-4.521Z" transform="translate(-713.717 -103.616)" fill="#253e66"/>
        <path id="Path_76099" data-name="Path 76099" d="M999.253,165.429a6.664,6.664,0,0,1,2.806,2.4,8.036,8.036,0,0,1,1.292,3.362,21.188,21.188,0,0,1,.138,3.228H991.656a3.92,3.92,0,0,0,1.7,3.44,4.315,4.315,0,0,0,2.344.609,3.6,3.6,0,0,0,2.359-.747,3.507,3.507,0,0,0,.87-1.125h4.34a5.3,5.3,0,0,1-1.578,2.948,7.9,7.9,0,0,1-6.113,2.369,8.847,8.847,0,0,1-5.726-2q-2.487-2-2.458-6.506a8.791,8.791,0,0,1,2.241-6.478,7.833,7.833,0,0,1,5.814-2.256,9.3,9.3,0,0,1,3.8.752m-6.361,3.671a4.422,4.422,0,0,0-1.136,2.511h7.322a3.518,3.518,0,0,0-1.131-2.565,3.724,3.724,0,0,0-2.521-.875,3.366,3.366,0,0,0-2.536.929" transform="translate(-879.066 -146.608)" fill="#253e66"/>
        <path id="Path_76100" data-name="Path 76100" d="M1153.953,165.422a6.664,6.664,0,0,1,2.806,2.4,7.972,7.972,0,0,1,1.3,3.361,20.58,20.58,0,0,1,.138,3.229h-11.84a3.92,3.92,0,0,0,1.7,3.44,4.316,4.316,0,0,0,2.35.6,3.6,3.6,0,0,0,2.359-.747,3.515,3.515,0,0,0,.875-1.116h4.339a5.323,5.323,0,0,1-1.573,2.948,7.939,7.939,0,0,1-6.119,2.369,8.875,8.875,0,0,1-5.726-2q-2.458-2-2.482-6.506a8.79,8.79,0,0,1,2.241-6.478,7.834,7.834,0,0,1,5.814-2.256,9.283,9.283,0,0,1,3.819.752m-6.36,3.672a4.421,4.421,0,0,0-1.121,2.511h7.323a3.542,3.542,0,0,0-1.136-2.565,3.726,3.726,0,0,0-2.531-.875,3.366,3.366,0,0,0-2.536.929" transform="translate(-1016.78 -146.601)" fill="#253e66"/>
        <path id="Path_76101" data-name="Path 76101" d="M1321.307,167.44q1.991,2.1,1.966,6.173,0,4.3-1.966,6.551a6.309,6.309,0,0,1-4.914,2.251,5.262,5.262,0,0,1-3.244-.982,6.27,6.27,0,0,1-1.381-1.565v8.483h-4.222V165.7h4.074v2.4a6.739,6.739,0,0,1,1.474-1.671,5.408,5.408,0,0,1,3.391-1.091,6.434,6.434,0,0,1,4.821,2.1m-3.258,3.057a3.032,3.032,0,0,0-2.811-1.445,3.2,3.2,0,0,0-3.19,2.172,8.168,8.168,0,0,0-.452,2.948q0,2.831,1.519,3.981a3.5,3.5,0,0,0,2.141.674,3.1,3.1,0,0,0,2.733-1.376,7.136,7.136,0,0,0,.082-6.954Z" transform="translate(-1164.094 -147.204)" fill="#253e66"/>
        <path id="Path_76102" data-name="Path 76102" d="M1478.8,165.338a6.679,6.679,0,0,1,2.811,2.4,8.028,8.028,0,0,1,1.293,3.361,20.479,20.479,0,0,1,.143,3.229h-11.839a3.891,3.891,0,0,0,1.7,3.44,4.309,4.309,0,0,0,2.339.609,3.307,3.307,0,0,0,3.239-1.863h4.339a5.364,5.364,0,0,1-1.578,2.948,7.9,7.9,0,0,1-6.114,2.369,8.846,8.846,0,0,1-5.726-2q-2.486-2-2.482-6.506a8.8,8.8,0,0,1,2.236-6.478,7.863,7.863,0,0,1,5.833-2.276,9.287,9.287,0,0,1,3.8.762m-6.359,3.672a4.424,4.424,0,0,0-1.13,2.511h7.323a3.557,3.557,0,0,0-1.131-2.565,3.725,3.725,0,0,0-2.506-.875,3.387,3.387,0,0,0-2.553.929" transform="translate(-1305.99 -146.518)" fill="#253e66"/>
        <path id="Path_76103" data-name="Path 76103" d="M1642.22,165.159h.369v4.354c-.27-.03-.494-.049-.717-.059h-.494c-1.711,0-2.86.56-3.44,1.671a6.494,6.494,0,0,0-.494,2.895v7.765h-4.283V165.529h4.059v2.836a8.916,8.916,0,0,1,1.695-2.224,4.67,4.67,0,0,1,3.106-.983Z" transform="translate(-1453.986 -147.037)" fill="#253e66"/>
      </g>
    </g>
  </g>
</svg>
